# xmcd
#
# Track frame offsets:
#	150
#	24524
#	50742
#	64521
#	80778
#	97941
#	114648
#	133838
#	155968
#	189375
#	209923
#	230202
#	241859
#	265771
#	289509
#
# Disc length: 4176 seconds
#
# Revision: 1
# Processed by: cddbd v1.5.1PL0 Copyright (c) Steve Scherf et al.
# Submitted via: audiograbber 1.83.01
#
DISCID=e1104e0f
DTITLE=30 lovsångsklassiker - Tid att tillbe CD1
DYEAR=2005
DGENRE=Contemporary ChristianChristian Rock
TTITLE0=Tid att tillbe 5,24
TTITLE1=Fyll hela jorden med lovsång - Hur ljuvlig är inte din boning 5,49
TTITLE2=Hosianna 3,03
TTITLE3=En ny sång 3,36
TTITLE4=Att lära känna dig är min längtan 3,48
TTITLE5=Jag vill lova Herren alltid 3,42
TTITLE6=Öppnade ögon 4,15
TTITLE7=Rena mig - Jag vill bara tjäna dig 4,55
TTITLE8=Guds namn är heligt 7,25
TTITLE9=Helig, helig, helig 4,33
TTITLE10=Du är en god Gud 4,30
TTITLE11=Min dikt gäller en konung 2,35
TTITLE12=Send ditt regn 5,18
TTITLE13=Vi väntar på dig nu - Just nu ger vi oss till dig 5,16
TTITLE14=Kom var mitt centrum 5,15
EXTD=
EXTT0=
EXTT1=
EXTT2=
EXTT3=
EXTT4=
EXTT5=
EXTT6=
EXTT7=
EXTT8=
EXTT9=
EXTT10=
EXTT11=
EXTT12=
EXTT13=
EXTT14=
PLAYORDER=
